<svg xmlns="http://www.w3.org/2000/svg" width="32" height="32" enable-background="new 0 0 32 32" viewBox="0 0 32 32"><path fill="#263238" d="M23,30H9c-3.86,0-7-3.14-7-7V9c0-3.86,3.14-7,7-7h14c3.86,0,7,3.14,7,7v14C30,26.86,26.86,30,23,30z M9,3
		C5.691,3,3,5.691,3,9v14c0,3.309,2.691,6,6,6h14c3.309,0,6-2.691,6-6V9c0-3.309-2.691-6-6-6H9z"/><path fill="#263238" d="M20,26h-8c-3.309,0-6-2.691-6-6v-8c0-3.309,2.691-6,6-6h8c3.309,0,6,2.691,6,6v8C26,23.309,23.309,26,20,26
		z M12,8c-2.206,0-4,1.794-4,4v8c0,2.206,1.794,4,4,4h8c2.206,0,4-1.794,4-4v-8c0-2.206-1.794-4-4-4H12z"/><path fill="#263238" d="M21.5 11.75c-.689 0-1.25-.561-1.25-1.25s.561-1.25 1.25-1.25 1.25.561 1.25 1.25S22.189 11.75 21.5 11.75zM16 21c-2.757 0-5-2.243-5-5s2.243-5 5-5 5 2.243 5 5S18.757 21 16 21zM16 13c-1.654 0-3 1.346-3 3s1.346 3 3 3 3-1.346 3-3S17.654 13 16 13z"/></svg>