<svg xmlns="http://www.w3.org/2000/svg" width="32" height="32" enable-background="new 0 0 32 32" viewBox="0 0 32 32"><path fill="#263238" d="M10.621,28.767c-3.334,0-6.583-0.974-9.395-2.817c-0.194-0.127-0.275-0.372-0.196-0.589
		c0.08-0.218,0.295-0.352,0.53-0.325c0.441,0.054,0.899,0.081,1.36,0.081c1.806,0,3.534-0.417,5.136-1.24
		c0.316-0.162,0.626-0.34,0.927-0.532c-2.192-0.509-4.004-2.166-4.709-4.417c-0.083-0.264,0.064-0.544,0.328-0.626
		c0.263-0.084,0.544,0.064,0.626,0.328c0.713,2.278,2.759,3.836,5.09,3.878c0.211,0.004,0.396,0.139,0.464,0.338
		s0.004,0.419-0.16,0.551c-0.656,0.527-1.366,0.988-2.109,1.37c-1.572,0.807-3.254,1.256-5.01,1.337
		c2.215,1.094,4.641,1.665,7.118,1.665c10.283,0,16.427-8.559,16.427-16.833c0-0.258-0.005-0.517-0.014-0.771
		c-0.006-0.165,0.069-0.322,0.203-0.421c1.121-0.828,2.079-1.846,2.845-3.023c0.15-0.231,0.461-0.299,0.691-0.146
		c0.231,0.15,0.297,0.46,0.146,0.691c-0.783,1.204-1.75,2.254-2.878,3.124c0.004,0.181,0.007,0.364,0.007,0.546
		C28.048,19.699,21.53,28.767,10.621,28.767z"/><path fill="#263238" d="M7.44 19.171c-.033 0-.067-.003-.101-.01-2.998-.614-5.174-3.333-5.174-6.463 0-.276.224-.538.5-.538s.5.186.5.462v.075c0 2.658 1.84 4.964 4.375 5.483.271.055.445.32.389.59C7.881 19.008 7.673 19.171 7.44 19.171zM5.361 13.882c-.097 0-.196-.028-.282-.087-1.794-1.228-2.865-3.278-2.865-5.483 0-1.163.301-2.309.87-3.313.082-.145.23-.239.396-.252.171-.013.327.057.43.187 2.936 3.689 7.273 5.941 11.899 6.179.275.014.488.25.474.525-.014.275-.261.483-.525.474-4.653-.24-9.03-2.397-12.126-5.951-.274.679-.417 1.41-.417 2.15 0 1.875.908 3.616 2.429 4.658.228.156.286.467.13.695C5.677 13.806 5.521 13.882 5.361 13.882zM15.646 10.281c-.012 0-.024 0-.036-.001-.275-.019-.483-.258-.463-.534.242-3.427 3.066-6.112 6.43-6.112 1.687 0 3.314.68 4.511 1.876 1.177-.266 2.304-.722 3.353-1.357.178-.107.404-.094.567.034.164.128.231.344.169.542-.476 1.524-1.482 2.819-2.832 3.646-.235.144-.544.07-.688-.165-.145-.235-.07-.543.165-.688.746-.458 1.368-1.083 1.823-1.822-.843.381-1.722.665-2.628.846-.17.035-.349-.023-.467-.153-1.022-1.119-2.471-1.76-3.973-1.76-2.841 0-5.228 2.276-5.433 5.182C16.126 10.08 15.907 10.281 15.646 10.281z"/></svg>